<svg xmlns="http://www.w3.org/2000/svg" xmlns:xlink="http://www.w3.org/1999/xlink" viewBox="0 0 60.68 60"><defs><style>.cls-1,.cls-2{fill-rule:evenodd;}.cls-1{fill:url(#Dégradé_sans_nom_18);}.cls-2{fill:url(#Eau_7);}</style><linearGradient id="Dégradé_sans_nom_18" x1="11.94" y1="13.88" x2="42.01" y2="49.72" gradientUnits="userSpaceOnUse"><stop offset="0" stop-color="#4d4d4d"/><stop offset="1" stop-color="#1a1a1a"/></linearGradient><linearGradient id="Eau_7" x1="38.17" y1="10.81" x2="48.8" y2="23.47" gradientUnits="userSpaceOnUse"><stop offset="0" stop-color="#69afe0"/><stop offset="0.1" stop-color="#60addf"/><stop offset="0.26" stop-color="#46a6dc"/><stop offset="0.46" stop-color="#1d9bd7"/><stop offset="0.58" stop-color="#0094d3"/><stop offset="1" stop-color="#007fc3"/></linearGradient></defs><title>Asset 5</title><g id="Layer_2" data-name="Layer 2"><g id="Calque_187_-_copie" data-name="Calque 187 - copie"><g id="Calque_4_-_copie" data-name="Calque 4 - copie"><path class="cls-1" d="M60.29,19.58A22.6,22.6,0,0,0,48.36,3c-8-4.3-16-3.81-23.75.72A21.36,21.36,0,0,0,14.33,17.35a25.28,25.28,0,0,0-.7,8.4,19.21,19.21,0,0,0,3.13,9.41,2.56,2.56,0,0,1,.19.46c-.24.28-.47.56-.72.81-1.29,1.3-2.57,2.61-3.88,3.89-3.1,3-6.23,6-9.31,9.09A16.85,16.85,0,0,0,.88,51.88,5.24,5.24,0,0,0,8.2,59.1a11.21,11.21,0,0,0,1.67-1.42q4.58-4.51,9.13-9c1.23-1.21,2.45-2.43,3.69-3.62a8.41,8.41,0,0,1,2.13-1.64l.29.08.42.21a22.75,22.75,0,0,0,12,3,22.76,22.76,0,0,0,16.29-7C59.3,34.06,61.68,27.34,60.29,19.58ZM40.73,39.69a17,17,0,0,1-18.57-8.31,15.2,15.2,0,0,1-1.82-9.84c.09-.56.17-1.13.27-1.7C22,12.57,28.25,8.36,33.08,7.34c1.37-.29,2.79-.38,4.18-.57A17,17,0,0,1,53.62,20.3,16.37,16.37,0,0,1,40.73,39.69Z"/><path class="cls-2" d="M48.88,18.15A17,17,0,0,0,44,12.68,8.13,8.13,0,0,0,39.37,11a1.71,1.71,0,0,1-.32,0,2.53,2.53,0,0,0-2.61,3.22A2.39,2.39,0,0,0,38.07,16a17.43,17.43,0,0,1,2.73,1.18,7.42,7.42,0,0,1,3.66,4.5A10.5,10.5,0,0,0,45,23a1.78,1.78,0,0,0,1,.9,2.8,2.8,0,0,0,3.81-3.07A8,8,0,0,0,48.88,18.15Z"/></g></g></g></svg>