<svg xmlns="http://www.w3.org/2000/svg" xmlns:xlink="http://www.w3.org/1999/xlink" viewBox="0 0 82.43 64.52"><defs><style>.cls-1{fill:url(#Dégradé_sans_nom_18);}</style><linearGradient id="Dégradé_sans_nom_18" x1="16.21" y1="-12.55" x2="74.04" y2="56.37" gradientUnits="userSpaceOnUse"><stop offset="0" stop-color="#4d4d4d"/><stop offset="1" stop-color="#1a1a1a"/></linearGradient></defs><title>Asset 3</title><g id="Layer_2" data-name="Layer 2"><g id="Calque_187_-_copie" data-name="Calque 187 - copie"><g id="Calque_4_-_copie" data-name="Calque 4 - copie"><path class="cls-1" d="M82,12.64c-.38-.47-.95-.46-1.56-.46H26.93a2,2,0,0,0,0,4h51l-5.6,25H28.81L17.61,8a2.31,2.31,0,0,0-1.05-1.32L2.85.2a2,2,0,1,0-1.7,3.57l13,6L25.49,43.54a2.29,2.29,0,0,0,1.89,1.64h4.15l-3.35,5.74a2.29,2.29,0,0,0,0,2.13,2.14,2.14,0,0,0,1.72,1.13h3.56a6,6,0,0,0-1,3.35,7.14,7.14,0,0,0,14.27.07,6.12,6.12,0,0,0-1-3.42h9.74a6,6,0,0,0-1,3.35,7.14,7.14,0,0,0,14.27.07,6.12,6.12,0,0,0-1-3.42h3.18a2,2,0,0,0,0-4H33.33l2.77-5H73.93a2.28,2.28,0,0,0,1.95-1.85l6.5-29A2,2,0,0,0,82,12.64ZM43.76,57.53a4,4,0,0,1-4.14,4,4,4,0,0,1-4.13-3.92c0-1.58.9-3.42,2.2-3.42h3.86C42.86,54.18,43.76,56,43.76,57.53Zm22,0a4,4,0,0,1-4.14,4,4,4,0,0,1-4.13-3.92c0-1.58.9-3.42,2.2-3.42h3.86C64.86,54.18,65.76,56,65.76,57.53Z"/></g></g></g></svg>