<svg xmlns="http://www.w3.org/2000/svg" xmlns:xlink="http://www.w3.org/1999/xlink" viewBox="0 0 70.37 64.41"><defs><style>.cls-1{fill:url(#Dégradé_sans_nom_18);}.cls-2{fill:url(#Dégradé_sans_nom_18-2);}</style><linearGradient id="Dégradé_sans_nom_18" x1="15.07" y1="-2.65" x2="56.74" y2="47.01" gradientUnits="userSpaceOnUse"><stop offset="0" stop-color="#4d4d4d"/><stop offset="1" stop-color="#1a1a1a"/></linearGradient><linearGradient id="Dégradé_sans_nom_18-2" x1="54.92" y1="5.99" x2="65.79" y2="18.94" xlink:href="#Dégradé_sans_nom_18"/></defs><title>Asset 4</title><g id="Layer_2" data-name="Layer 2"><g id="Calque_187_-_copie" data-name="Calque 187 - copie"><g id="Calque_4_-_copie" data-name="Calque 4 - copie"><g id="Calque_136_-_copie" data-name="Calque 136 - copie"><path class="cls-1" d="M70.34,18.11h0A18.87,18.87,0,0,0,60.91,2.41a19.56,19.56,0,0,0-19.56.51,22.31,22.31,0,0,0-6.13,5.82,21.19,21.19,0,0,0-11.06-8A19.23,19.23,0,0,0,8.24,3.2a18.66,18.66,0,0,0-8,12.87A30.47,30.47,0,0,0,2.7,32.55c2.47,5.28,6.79,9.45,10.63,13,2.34,2.12,4.77,4.22,7.11,6.25,2,1.72,4,3.49,6,5.26l1.19,1.06c1.68,1.51,3.43,3.07,5.09,4.64.1.09.19.22.3.34a3.14,3.14,0,0,0,2.1,1.36h.12a2.13,2.13,0,0,0,1.51-.64c.46-.43.9-.88,1.35-1.33s1-1,1.51-1.49c3.87-3.57,7.92-7.09,11.83-10.49l2.23-1.93c4.18-3.61,8.51-7.35,11.74-12A29.73,29.73,0,0,0,70.34,18.11ZM63,34.82c-3,4.34-7.2,8-11.24,11.44l-2.24,1.93c-3.93,3.42-8,7-11.89,10.56-.56.51-1.09,1-1.62,1.59-.24.23-.47.47-.71.71a6.1,6.1,0,0,0-.47-.52c-1.69-1.6-3.45-3.17-5.15-4.7l-1.19-1c-2-1.79-4.05-3.57-6-5.3-2.33-2-4.73-4.1-7-6.2-3.8-3.46-7.7-7.23-9.93-12a27.35,27.35,0,0,1-2.19-14.8A15.63,15.63,0,0,1,9.92,5.69a16,16,0,0,1,9-2.69,16.24,16.24,0,0,1,4.47.62c4.18,1.19,7.75,4.07,10.6,8.55l1.25,1.94,1.27-1.92a21.23,21.23,0,0,1,6.47-6.72A16.51,16.51,0,0,1,59.45,5a15.85,15.85,0,0,1,7.89,13.2h0A26.76,26.76,0,0,1,63,34.82Z"/><path class="cls-2" d="M62.41,11.22a10.74,10.74,0,0,0-3.6-3.31,9.58,9.58,0,0,0-4.57-1.34,26.14,26.14,0,0,1,3.67,2.61,16.34,16.34,0,0,1,4.78,7c.3.67.43,1.4.67,2.12s.32,1.48.57,2.25a15.19,15.19,0,0,0,.41-2.35,11.38,11.38,0,0,0-.14-2.4A10.57,10.57,0,0,0,62.41,11.22Z"/></g></g></g></g></svg>