<?xml version="1.0" standalone="no"?>
<svg version="1.0" xmlns="http://www.w3.org/2000/svg"
 width="455.000000pt" height="457.000000pt" viewBox="0 0 455.000000 457.000000"
 preserveAspectRatio="xMidYMid meet">

<g transform="translate(0.000000,457.000000) scale(0.100000,-0.100000)"
fill="#000000" stroke="none">
<path d="M2195 4504 c-160 -15 -311 -53 -440 -111 -460 -208 -755 -667 -755
-1177 0 -164 55 -398 131 -548 83 -166 231 -345 375 -453 41 -31 74 -58 74
-59 0 -2 -35 -16 -77 -31 -101 -35 -318 -141 -413 -201 -283 -180 -531 -428
-714 -714 -168 -263 -305 -670 -323 -959 -7 -119 7 -159 72 -196 54 -32 106
-32 160 0 54 31 71 68 85 180 29 241 84 426 190 641 152 308 363 549 653 744
611 410 1397 438 2030 71 149 -86 260 -173 397 -310 194 -195 313 -369 416
-610 77 -180 106 -298 150 -607 2 -18 15 -47 27 -65 61 -92 191 -90 261 5 38
50 22 249 -39 488 -178 694 -698 1272 -1373 1526 l-101 38 59 43 c83 61 217
194 278 276 105 143 185 325 223 508 26 126 28 339 5 469 -92 513 -495 926
-1004 1027 -97 20 -271 32 -347 25z m241 -328 c326 -58 578 -250 718 -547 53
-111 72 -181 84 -306 40 -402 -169 -776 -533 -953 -132 -65 -239 -91 -390 -97
-490 -20 -909 332 -985 826 -16 103 -8 244 20 361 27 114 114 286 191 378 217
261 571 395 895 338z"/>
</g>
</svg>
