<?xml version="1.0" encoding="utf-8"?>
<!-- Generator: Adobe Illustrator 23.0.3, SVG Export Plug-In . SVG Version: 6.00 Build 0)  -->
<svg version="1.1" id="Layer_1" xmlns="http://www.w3.org/2000/svg" xmlns:xlink="http://www.w3.org/1999/xlink" x="0px" y="0px"
	 viewBox="0 0 760 1700" enable-background="new 0 0 760 1700" xml:space="preserve">
<g opacity="0.05">
	<path fill="none" stroke="#000000" stroke-width="3.8971" stroke-miterlimit="10" stroke-dasharray="19.4855,9.7428" d="
		M14.145,1939.327c0-134.858,181.204-206.097,356.435-274.952c182.82-71.87,371.87-146.164,371.87-297.575
		c0-151.409-189.05-225.722-371.87-297.574c-175.231-68.885-356.435-140.113-356.435-274.99
		c0-134.848,181.204-206.079,356.435-274.952c182.82-71.862,371.87-146.156,371.87-297.566c0-151.429-189.05-225.733-371.87-297.595
		C195.349-144.749,14.145-215.988,14.145-350.866C14.145-357.57,8.715-363,2.001-363"/>
</g>
<g opacity="0.03">
	<path fill="none" stroke="#000000" stroke-width="3.8971" stroke-miterlimit="10" stroke-dasharray="19.4855,9.7428" d="
		M23.145,1960.327c0-134.858,181.204-206.097,356.435-274.952c182.82-71.87,371.87-146.164,371.87-297.575
		c0-151.409-189.05-225.722-371.87-297.574c-175.231-68.885-356.435-140.113-356.435-274.99
		c0-134.848,181.204-206.079,356.435-274.952c182.82-71.862,371.87-146.156,371.87-297.566c0-151.429-189.05-225.733-371.87-297.595
		C204.349-123.749,23.145-194.988,23.145-329.866c0-6.704-5.431-12.134-12.144-12.134"/>
</g>
</svg>
