<?xml version="1.0" standalone="no"?>
<!DOCTYPE svg PUBLIC "-//W3C//DTD SVG 20010904//EN"
 "http://www.w3.org/TR/2001/REC-SVG-20010904/DTD/svg10.dtd">
<svg version="1.0" xmlns="http://www.w3.org/2000/svg"
 width="350.000000pt" height="350.000000pt" viewBox="0 0 350.000000 350.000000"
 preserveAspectRatio="xMidYMid meet">
<metadata>
Created by potrace 1.11, written by Peter Selinger 2001-2013
</metadata>
<g transform="translate(0.000000,350.000000) scale(0.100000,-0.100000)"
fill="#000000" stroke="none">
<path d="M0 1750 l0 -1750 1750 0 1750 0 0 1750 0 1750 -1750 0 -1750 0 0
-1750z m1087 704 c32 -23 73 -80 73 -100 0 -12 -89 -81 -93 -72 -2 1 -10 20
-20 41 -12 26 -28 43 -52 53 -48 20 -72 18 -132 -11 -82 -38 -143 -149 -115
-210 6 -14 45 -49 86 -79 103 -77 121 -105 121 -186 -1 -125 -84 -253 -202
-312 -53 -26 -80 -32 -146 -36 -71 -3 -88 0 -127 20 -47 24 -82 75 -93 134 -5
28 -2 35 38 63 25 18 49 30 54 27 5 -3 12 -21 15 -40 23 -120 170 -140 276
-38 35 35 52 61 63 100 21 69 10 100 -51 142 -79 56 -142 122 -152 162 -21 75
26 194 107 269 82 77 142 100 250 96 54 -2 79 -7 100 -23z m413 -224 c1 -107
5 -255 9 -329 l6 -134 235 270 c129 148 269 309 310 356 41 48 78 87 81 87 3
0 -49 -207 -115 -460 l-121 -460 -52 0 c-29 0 -53 2 -53 5 0 6 153 544 165
580 9 27 -2 15 -300 -327 -137 -158 -251 -285 -255 -282 -3 3 -7 146 -10 317
l-5 312 -46 -80 c-26 -44 -58 -100 -72 -125 -14 -25 -68 -121 -121 -214 -53
-93 -96 -173 -96 -177 0 -5 -27 -9 -61 -9 -33 0 -58 3 -56 8 8 15 244 413 391
661 137 230 152 251 157 225 4 -16 8 -117 9 -224z m1437 235 c27 -8 68 -28 91
-44 43 -32 98 -113 87 -131 -3 -5 -26 -23 -50 -40 l-43 -30 -25 43 c-52 88
-159 130 -282 109 -231 -38 -446 -285 -449 -517 -2 -123 58 -194 182 -217 115
-21 242 24 343 122 46 46 99 122 99 145 0 3 -59 5 -131 5 -72 0 -129 3 -127 8
2 4 10 24 18 45 l14 37 183 0 c111 0 183 -4 183 -10 0 -20 -43 -117 -76 -172
-78 -129 -231 -239 -371 -268 -132 -28 -287 2 -356 68 -57 53 -72 97 -71 207
0 83 5 113 27 174 84 230 270 408 487 465 73 19 204 20 267 1z m-182 -1004
c177 -30 332 -65 443 -102 98 -33 126 -55 41 -33 -174 45 -550 90 -849 101
-237 8 -385 -6 -810 -80 l-355 -61 -250 0 c-233 0 -259 2 -375 27 -69 14 -156
37 -195 50 -95 33 -227 88 -222 94 3 2 37 -5 77 -16 96 -27 345 -68 490 -81
232 -20 413 -9 696 44 381 72 527 85 889 81 239 -2 313 -7 420 -24z m-2454
-201 c10 -6 19 -17 19 -25 0 -18 -5 -19 -30 -3 -16 10 -23 10 -37 -4 -16 -17
-14 -20 25 -56 46 -42 50 -56 26 -90 -20 -29 -74 -30 -99 -2 -25 27 -11 38 23
18 19 -12 32 -14 45 -7 26 15 21 34 -18 63 -42 33 -48 76 -13 100 26 19 33 19
59 6z m89 -7 c0 -9 -5 -56 -11 -105 -8 -62 -16 -88 -25 -88 -8 0 -14 2 -14 4
0 12 21 164 25 184 6 26 25 30 25 5z m2335 3 c19 -8 35 -22 35 -30 0 -20 -4
-20 -42 0 -36 18 -69 12 -98 -18 -20 -22 -27 -72 -12 -95 15 -23 62 -34 90
-21 37 18 42 48 8 48 -14 0 -26 5 -26 10 0 6 21 10 46 10 45 0 46 0 39 -27
-11 -48 -43 -73 -91 -73 -56 0 -72 7 -89 41 -30 58 -8 130 48 154 41 18 50 18
92 1z m-1725 -71 c12 -36 23 -65 25 -65 2 0 23 33 47 73 l43 72 7 -45 c3 -25
7 -71 7 -102 1 -45 -2 -58 -14 -58 -12 0 -15 13 -15 55 0 30 -4 55 -8 55 -4 0
-21 -25 -37 -55 -17 -30 -33 -55 -37 -55 -4 0 -15 25 -24 55 -10 30 -20 55
-24 55 -3 0 -12 -22 -19 -50 -12 -48 -26 -68 -38 -56 -8 8 49 196 58 190 4 -2
17 -33 29 -69z m1458 30 c-4 -17 -1 -25 8 -25 18 0 18 -19 0 -26 -8 -3 -17
-27 -21 -55 -6 -45 -14 -57 -27 -44 -3 3 -2 26 2 50 6 36 4 48 -9 55 -14 8
-14 9 2 15 9 4 17 15 17 24 0 20 8 31 23 31 5 0 7 -11 5 -25z m-1944 -47 c27
-38 20 -48 -34 -48 -37 0 -50 -4 -50 -14 0 -20 38 -30 56 -15 17 14 29 6 21
-16 -10 -24 -73 -20 -91 7 -21 30 -20 50 5 82 26 33 71 35 93 4z m134 10 c7
-7 12 -22 12 -35 0 -21 -5 -23 -45 -23 -34 0 -45 -4 -45 -15 0 -22 29 -30 52
-16 23 14 33 9 25 -14 -4 -9 -19 -15 -41 -15 -61 0 -85 69 -40 114 18 19 65
21 82 4z m158 -13 c18 -27 12 -76 -12 -95 -7 -7 -30 -10 -49 -8 -31 3 -35 1
-35 -18 0 -12 -6 -27 -13 -33 -15 -12 -28 -5 -22 12 2 7 6 32 9 57 14 108 13
107 62 108 36 2 46 -2 60 -23z m475 -36 c-2 -30 -5 -57 -7 -60 -2 -3 -23 -6
-47 -7 -58 -3 -82 22 -73 72 8 44 29 57 86 53 l45 -4 -4 -54z m147 27 c5 -42
-7 -98 -21 -93 -7 2 -10 23 -8 55 2 40 -1 52 -12 52 -21 0 -40 -26 -46 -67 -3
-20 -12 -38 -20 -41 -11 -4 -12 6 -6 54 4 33 8 61 10 64 2 3 25 6 52 5 45 0
48 -2 51 -29z m157 -26 c-4 -30 -9 -58 -11 -61 -6 -11 -87 -9 -100 2 -19 16
-17 79 2 101 13 13 29 17 66 16 l50 -2 -7 -56z m160 45 c-1 -52 -19 -138 -31
-150 -26 -25 -63 -29 -84 -10 -21 19 -27 45 -10 45 6 0 13 -7 16 -15 8 -21 51
-19 63 3 8 16 6 17 -24 14 -55 -6 -84 56 -49 106 13 19 23 22 67 19 29 -1 52
-7 52 -12z m129 -7 c27 -38 20 -48 -34 -48 -52 0 -61 -8 -34 -31 12 -10 20
-10 35 -1 25 16 45 6 28 -14 -15 -19 -73 -18 -89 2 -19 22 -16 70 5 94 24 27
70 26 89 -2z m211 -42 c0 -42 -4 -61 -14 -64 -11 -4 -13 6 -9 47 8 84 -34 79
-47 -5 -9 -61 -31 -54 -27 8 6 78 -40 75 -51 -3 -11 -82 -32 -64 -22 19 l7 59
81 -1 82 -1 0 -59z m143 52 c7 -7 12 -22 12 -35 0 -21 -4 -23 -51 -23 -52 0
-61 -12 -26 -34 12 -8 23 -7 38 2 25 16 37 8 19 -13 -15 -18 -71 -20 -88 -3
-21 21 -15 85 10 102 27 19 69 21 86 4z m147 -9 c9 -27 -3 -109 -16 -109 -5 0
-9 22 -9 49 0 28 -5 53 -11 56 -18 12 -48 -25 -51 -63 -2 -19 -9 -37 -16 -40
-10 -3 -12 8 -7 50 9 76 9 75 58 76 38 2 47 -1 52 -19z m495 13 c0 -5 -11 -14
-24 -20 -18 -8 -25 -21 -30 -57 -5 -29 -12 -45 -19 -42 -7 2 -11 10 -10 18 13
111 12 109 49 109 19 0 34 -4 34 -8z m124 -14 c35 -50 4 -108 -58 -108 -40 0
-59 20 -59 60 0 64 83 97 117 48z m71 -34 c0 -42 3 -49 20 -49 16 0 22 10 29
53 10 61 33 66 28 6 -5 -55 -26 -84 -62 -84 -38 0 -52 26 -44 85 9 60 29 53
29 -11z m229 32 c21 -33 20 -48 -6 -81 -18 -23 -26 -26 -60 -22 -36 5 -38 4
-38 -23 0 -27 -15 -48 -26 -37 -5 5 14 166 21 177 2 3 23 6 48 8 38 2 47 -1
61 -22z"/>
<path d="M447 1164 c-14 -14 -6 -24 19 -24 16 0 24 5 22 13 -5 14 -31 21 -41
11z"/>
<path d="M587 1163 c-15 -14 -6 -23 24 -23 27 0 30 2 19 15 -13 16 -32 19 -43
8z"/>
<path d="M738 1159 c-23 -13 -24 -65 -2 -73 39 -15 73 41 42 72 -14 14 -18 14
-40 1z"/>
<path d="M1195 1154 c-19 -20 -16 -53 7 -67 34 -22 66 41 36 71 -16 16 -23 15
-43 -4z"/>
<path d="M1497 1152 c-22 -25 -21 -49 2 -62 20 -10 51 -4 51 10 0 5 3 15 6 23
5 14 -19 47 -35 47 -4 0 -15 -8 -24 -18z"/>
<path d="M1658 1159 c-22 -12 -23 -52 -4 -68 35 -29 76 35 44 67 -14 14 -18
14 -40 1z"/>
<path d="M1807 1163 c-15 -14 -6 -23 23 -23 32 0 40 14 14 24 -20 8 -29 8 -37
-1z"/>
<path d="M2160 1155 c-11 -13 -8 -15 20 -15 21 0 30 4 28 13 -7 18 -33 20 -48
2z"/>
<path d="M2915 1154 c-20 -20 -16 -53 8 -68 36 -23 75 35 47 70 -16 18 -35 18
-55 -2z"/>
<path d="M3217 1152 c-23 -25 -21 -49 4 -62 38 -21 69 36 37 68 -16 16 -22 15
-41 -6z"/>
</g>
</svg>
